G04*
G04 #@! TF.GenerationSoftware,Altium Limited,Altium Designer,19.0.15 (446)*
G04*
G04 Layer_Physical_Order=1*
G04 Layer_Color=255*
%FSLAX44Y44*%
%MOMM*%
G71*
G01*
G75*
%ADD10R,1.5500X1.3000*%
G04:AMPARAMS|DCode=11|XSize=0.76mm|YSize=2.4mm|CornerRadius=0.19mm|HoleSize=0mm|Usage=FLASHONLY|Rotation=270.000|XOffset=0mm|YOffset=0mm|HoleType=Round|Shape=RoundedRectangle|*
%AMROUNDEDRECTD11*
21,1,0.7600,2.0200,0,0,270.0*
21,1,0.3800,2.4000,0,0,270.0*
1,1,0.3800,-1.0100,-0.1900*
1,1,0.3800,-1.0100,0.1900*
1,1,0.3800,1.0100,0.1900*
1,1,0.3800,1.0100,-0.1900*
%
%ADD11ROUNDEDRECTD11*%
%ADD17C,0.1270*%
%ADD18C,0.2500*%
G04:AMPARAMS|DCode=19|XSize=2mm|YSize=2mm|CornerRadius=0.5mm|HoleSize=0mm|Usage=FLASHONLY|Rotation=180.000|XOffset=0mm|YOffset=0mm|HoleType=Round|Shape=RoundedRectangle|*
%AMROUNDEDRECTD19*
21,1,2.0000,1.0000,0,0,180.0*
21,1,1.0000,2.0000,0,0,180.0*
1,1,1.0000,-0.5000,0.5000*
1,1,1.0000,0.5000,0.5000*
1,1,1.0000,0.5000,-0.5000*
1,1,1.0000,-0.5000,-0.5000*
%
%ADD19ROUNDEDRECTD19*%
%ADD20C,2.0000*%
G04:AMPARAMS|DCode=21|XSize=2mm|YSize=2mm|CornerRadius=0.5mm|HoleSize=0mm|Usage=FLASHONLY|Rotation=270.000|XOffset=0mm|YOffset=0mm|HoleType=Round|Shape=RoundedRectangle|*
%AMROUNDEDRECTD21*
21,1,2.0000,1.0000,0,0,270.0*
21,1,1.0000,2.0000,0,0,270.0*
1,1,1.0000,-0.5000,-0.5000*
1,1,1.0000,-0.5000,0.5000*
1,1,1.0000,0.5000,0.5000*
1,1,1.0000,0.5000,-0.5000*
%
%ADD21ROUNDEDRECTD21*%
%ADD22C,0.6000*%
D10*
X319750Y227500D02*
D03*
X240250D02*
D03*
Y272500D02*
D03*
X319750D02*
D03*
D11*
X299500Y74600D02*
D03*
X260500D02*
D03*
X299500Y87300D02*
D03*
X260500D02*
D03*
X299500Y100000D02*
D03*
X260500D02*
D03*
X299500Y112700D02*
D03*
X260500D02*
D03*
X299500Y125400D02*
D03*
X260500D02*
D03*
D17*
X219000Y211000D02*
X232000Y198000D01*
Y126250D02*
Y198000D01*
Y126250D02*
X245550Y112700D01*
X260500D01*
X153050Y252750D02*
X174600Y274300D01*
X74600Y252750D02*
X153050D01*
X61400Y154600D02*
X74600D01*
X56000Y160000D02*
X61400Y154600D01*
X56000Y160000D02*
Y233000D01*
X67750Y244750D01*
X118750D01*
X140000Y223500D01*
X174600D01*
X138900Y198100D02*
X174600D01*
X119250Y217750D02*
X138900Y198100D01*
X67000Y217750D02*
X119250D01*
X60250Y211000D02*
X67000Y217750D01*
X60250Y173250D02*
Y211000D01*
Y173250D02*
X66250Y167250D01*
X82250D01*
X87750Y161750D01*
Y142350D02*
Y161750D01*
X74600Y129200D02*
X87750Y142350D01*
X74600Y205400D02*
X87250Y192750D01*
X127750D01*
X147800Y172700D01*
X174600D01*
X74600Y180000D02*
X87350Y167250D01*
X123750D01*
X143700Y147300D01*
X174600D01*
X140800Y96500D02*
X174600D01*
X90000Y45700D02*
X140800Y96500D01*
Y71100D02*
X174600D01*
X115400Y45700D02*
X140800Y71100D01*
X240250Y131000D02*
Y227500D01*
Y131000D02*
X245850Y125400D01*
X260500D01*
X174600Y274300D02*
X187150Y261750D01*
X218000D01*
X240250Y239500D01*
Y227500D02*
Y239500D01*
X279500Y82500D02*
X284300Y87300D01*
X279500Y69250D02*
Y82500D01*
X268750Y58500D02*
X279500Y69250D01*
X284300Y87300D02*
X299500D01*
X187200Y58500D02*
X268750D01*
X174600Y71100D02*
X187200Y58500D01*
X174600Y96500D02*
X187100Y84000D01*
X220250D01*
X229650Y74600D01*
X260500D01*
X209750Y160250D02*
X220500Y149500D01*
Y118250D02*
Y149500D01*
Y118250D02*
X245000Y93750D01*
X210250Y134250D02*
X215750Y128750D01*
Y116500D02*
Y128750D01*
Y116500D02*
X244950Y87300D01*
X187050Y160250D02*
X209750D01*
X174600Y172700D02*
X187050Y160250D01*
X245000Y93750D02*
X276250D01*
X282500Y100000D01*
X299500D01*
X187650Y134250D02*
X210250D01*
X174600Y147300D02*
X187650Y134250D01*
X244950Y87300D02*
X260500D01*
X174600Y198100D02*
X187450Y185250D01*
X213750D01*
X225000Y174000D01*
Y120500D02*
Y174000D01*
Y120500D02*
X245500Y100000D01*
X260500D01*
X174600Y223500D02*
X187100Y211000D01*
X219000D01*
X240250Y227500D02*
X319750D01*
D18*
Y272500D02*
Y282750D01*
X240250Y272500D02*
Y282750D01*
X64500Y114250D02*
X85050D01*
X100000Y129200D01*
X49500Y129250D02*
X64500Y114250D01*
X49500Y129250D02*
Y241250D01*
X98000Y289750D01*
X184550D01*
X200000Y274300D01*
X299500Y112700D02*
Y125400D01*
Y139000D01*
X322000Y82250D02*
Y142000D01*
X315250Y75500D02*
X322000Y82250D01*
X304250Y159750D02*
X322000Y142000D01*
X216450Y274300D02*
X232500Y258250D01*
X200000Y274300D02*
X216450D01*
X232500Y258250D02*
X312000D01*
X332750Y237500D01*
Y217500D02*
Y237500D01*
X324000Y208750D02*
X332750Y217500D01*
X298750Y208750D02*
X324000D01*
X280000Y190000D02*
X298750Y208750D01*
X300400Y75500D02*
X315250D01*
X299500Y74600D02*
X300400Y75500D01*
X284850Y159750D02*
X304250D01*
X254600Y190000D02*
X284850Y159750D01*
D19*
X115400Y45700D02*
D03*
X254600Y190000D02*
D03*
D20*
X90000Y45700D02*
D03*
X64600D02*
D03*
X280000Y190000D02*
D03*
X305400D02*
D03*
X200000Y274300D02*
D03*
X174600Y248900D02*
D03*
X200000D02*
D03*
X174600Y223500D02*
D03*
X200000D02*
D03*
X174600Y198100D02*
D03*
X200000D02*
D03*
X174600Y172700D02*
D03*
X200000D02*
D03*
X174600Y147300D02*
D03*
X200000D02*
D03*
X174600Y121900D02*
D03*
X200000D02*
D03*
X174600Y96500D02*
D03*
X200000D02*
D03*
X174600Y71100D02*
D03*
X200000D02*
D03*
X174600Y45700D02*
D03*
X200000D02*
D03*
X100000Y180000D02*
D03*
X74600Y154600D02*
D03*
X100000D02*
D03*
X74600Y129200D02*
D03*
Y180000D02*
D03*
X100000Y205400D02*
D03*
X74600D02*
D03*
X100000Y230800D02*
D03*
X74600D02*
D03*
D21*
X174600Y274300D02*
D03*
X100000Y129200D02*
D03*
D22*
X319750Y282750D02*
D03*
X240250D02*
D03*
X74600Y252750D02*
D03*
X299500Y139000D02*
D03*
M02*
