G04*
G04 #@! TF.GenerationSoftware,Altium Limited,Altium Designer,19.0.15 (446)*
G04*
G04 Layer_Color=16711935*
%FSLAX44Y44*%
%MOMM*%
G71*
G01*
G75*
G04:AMPARAMS|DCode=14|XSize=2.05mm|YSize=2.05mm|CornerRadius=0.525mm|HoleSize=0mm|Usage=FLASHONLY|Rotation=180.000|XOffset=0mm|YOffset=0mm|HoleType=Round|Shape=RoundedRectangle|*
%AMROUNDEDRECTD14*
21,1,2.0500,1.0000,0,0,180.0*
21,1,1.0000,2.0500,0,0,180.0*
1,1,1.0500,-0.5000,0.5000*
1,1,1.0500,0.5000,0.5000*
1,1,1.0500,0.5000,-0.5000*
1,1,1.0500,-0.5000,-0.5000*
%
%ADD14ROUNDEDRECTD14*%
%ADD15C,2.0500*%
G04:AMPARAMS|DCode=16|XSize=2.05mm|YSize=2.05mm|CornerRadius=0.525mm|HoleSize=0mm|Usage=FLASHONLY|Rotation=270.000|XOffset=0mm|YOffset=0mm|HoleType=Round|Shape=RoundedRectangle|*
%AMROUNDEDRECTD16*
21,1,2.0500,1.0000,0,0,270.0*
21,1,1.0000,2.0500,0,0,270.0*
1,1,1.0500,-0.5000,-0.5000*
1,1,1.0500,-0.5000,0.5000*
1,1,1.0500,0.5000,0.5000*
1,1,1.0500,0.5000,-0.5000*
%
%ADD16ROUNDEDRECTD16*%
D14*
X115400Y45700D02*
D03*
X254600Y190000D02*
D03*
D15*
X90000Y45700D02*
D03*
X64600D02*
D03*
X280000Y190000D02*
D03*
X305400D02*
D03*
X200000Y274300D02*
D03*
X174600Y248900D02*
D03*
X200000D02*
D03*
X174600Y223500D02*
D03*
X200000D02*
D03*
X174600Y198100D02*
D03*
X200000D02*
D03*
X174600Y172700D02*
D03*
X200000D02*
D03*
X174600Y147300D02*
D03*
X200000D02*
D03*
X174600Y121900D02*
D03*
X200000D02*
D03*
X174600Y96500D02*
D03*
X200000D02*
D03*
X174600Y71100D02*
D03*
X200000D02*
D03*
X174600Y45700D02*
D03*
X200000D02*
D03*
X100000Y180000D02*
D03*
X74600Y154600D02*
D03*
X100000D02*
D03*
X74600Y129200D02*
D03*
Y180000D02*
D03*
X100000Y205400D02*
D03*
X74600D02*
D03*
X100000Y230800D02*
D03*
X74600D02*
D03*
D16*
X174600Y274300D02*
D03*
X100000Y129200D02*
D03*
M02*
