M48
;Layer_Color=9474304
;FILE_FORMAT=4:4
METRIC,LZ
;TYPE=PLATED
T1F00S00C0.3000
T2F00S00C1.1000
%
T01
X000746Y0025275
X0024025Y0028275
X0031975
X002995Y00139
T02
X000646Y000457
X0009
X001154
X001746
Y000711
X002
Y000457
Y000965
Y001219
Y001473
Y001727
Y001981
Y002235
Y002489
Y002743
X001746
Y002489
Y002235
Y001981
Y001727
Y001473
Y001219
Y000965
X001Y001292
Y001546
Y0018
X000746
Y001546
Y001292
Y002054
X001
Y002308
X000746
X002546Y0019
X0028
X003054
M30
