G04*
G04 #@! TF.GenerationSoftware,Altium Limited,Altium Designer,19.0.15 (446)*
G04*
G04 Layer_Physical_Order=2*
G04 Layer_Color=16711680*
%FSLAX44Y44*%
%MOMM*%
G71*
G01*
G75*
%ADD17C,0.1270*%
G04:AMPARAMS|DCode=19|XSize=2mm|YSize=2mm|CornerRadius=0.5mm|HoleSize=0mm|Usage=FLASHONLY|Rotation=180.000|XOffset=0mm|YOffset=0mm|HoleType=Round|Shape=RoundedRectangle|*
%AMROUNDEDRECTD19*
21,1,2.0000,1.0000,0,0,180.0*
21,1,1.0000,2.0000,0,0,180.0*
1,1,1.0000,-0.5000,0.5000*
1,1,1.0000,0.5000,0.5000*
1,1,1.0000,0.5000,-0.5000*
1,1,1.0000,-0.5000,-0.5000*
%
%ADD19ROUNDEDRECTD19*%
%ADD20C,2.0000*%
G04:AMPARAMS|DCode=21|XSize=2mm|YSize=2mm|CornerRadius=0.5mm|HoleSize=0mm|Usage=FLASHONLY|Rotation=270.000|XOffset=0mm|YOffset=0mm|HoleType=Round|Shape=RoundedRectangle|*
%AMROUNDEDRECTD21*
21,1,2.0000,1.0000,0,0,270.0*
21,1,1.0000,2.0000,0,0,270.0*
1,1,1.0000,-0.5000,-0.5000*
1,1,1.0000,-0.5000,0.5000*
1,1,1.0000,0.5000,0.5000*
1,1,1.0000,0.5000,-0.5000*
%
%ADD21ROUNDEDRECTD21*%
%ADD22C,0.6000*%
G36*
X341468Y354902D02*
X344347Y354329D01*
X347059Y353206D01*
X349500Y351575D01*
X351575Y349500D01*
X353206Y347059D01*
X354329Y344347D01*
X354902Y341468D01*
Y340000D01*
Y20000D01*
Y18532D01*
X354329Y15653D01*
X353206Y12941D01*
X351575Y10500D01*
X349500Y8425D01*
X347059Y6794D01*
X344347Y5670D01*
X341468Y5098D01*
X340000Y5098D01*
X20000D01*
X18532Y5098D01*
X15653Y5671D01*
X12941Y6794D01*
X10500Y8425D01*
X8425Y10500D01*
X6794Y12941D01*
X5670Y15653D01*
X5098Y18532D01*
Y20000D01*
Y340000D01*
Y341468D01*
X5670Y344347D01*
X6794Y347059D01*
X8425Y349500D01*
X10500Y351575D01*
X12941Y353206D01*
X15653Y354329D01*
X18532Y354902D01*
X20000Y354902D01*
X340000D01*
X341468Y354902D01*
D02*
G37*
%LPC*%
G36*
X200000Y285667D02*
X197058Y285280D01*
X194316Y284144D01*
X191962Y282338D01*
X190156Y279984D01*
X189020Y277242D01*
X188633Y274300D01*
X189020Y271358D01*
X190156Y268616D01*
X191962Y266262D01*
X194316Y264456D01*
X197058Y263320D01*
X200000Y262933D01*
X202942Y263320D01*
X205684Y264456D01*
X208038Y266262D01*
X209844Y268616D01*
X210980Y271358D01*
X211367Y274300D01*
X210980Y277242D01*
X209844Y279984D01*
X208038Y282338D01*
X205684Y284144D01*
X202942Y285280D01*
X200000Y285667D01*
D02*
G37*
G36*
X179600Y285693D02*
X169600D01*
X167154Y285206D01*
X165080Y283820D01*
X163694Y281747D01*
X163207Y279300D01*
Y269300D01*
X163694Y266854D01*
X165080Y264780D01*
X167154Y263394D01*
X169600Y262907D01*
X179600D01*
X182046Y263394D01*
X184120Y264780D01*
X185506Y266854D01*
X185993Y269300D01*
Y279300D01*
X185506Y281747D01*
X184120Y283820D01*
X182046Y285206D01*
X179600Y285693D01*
D02*
G37*
G36*
X201250Y260335D02*
Y250150D01*
X211435D01*
X211204Y251902D01*
X210045Y254700D01*
X208202Y257102D01*
X205800Y258945D01*
X203002Y260104D01*
X201250Y260335D01*
D02*
G37*
G36*
X175850D02*
Y250150D01*
X186035D01*
X185804Y251902D01*
X184645Y254700D01*
X182802Y257102D01*
X180400Y258945D01*
X177602Y260104D01*
X175850Y260335D01*
D02*
G37*
G36*
X198750D02*
X196998Y260104D01*
X194200Y258945D01*
X191798Y257102D01*
X189955Y254700D01*
X188796Y251902D01*
X188565Y250150D01*
X198750D01*
Y260335D01*
D02*
G37*
G36*
X173350D02*
X171598Y260104D01*
X168800Y258945D01*
X166398Y257102D01*
X164555Y254700D01*
X163396Y251902D01*
X163165Y250150D01*
X173350D01*
Y260335D01*
D02*
G37*
G36*
X198750Y247650D02*
X188565D01*
X188796Y245898D01*
X189955Y243100D01*
X191798Y240698D01*
X194200Y238855D01*
X196998Y237696D01*
X198750Y237465D01*
Y247650D01*
D02*
G37*
G36*
X173350D02*
X163165D01*
X163396Y245898D01*
X164555Y243100D01*
X166398Y240698D01*
X168800Y238855D01*
X171598Y237696D01*
X173350Y237465D01*
Y247650D01*
D02*
G37*
G36*
X211435D02*
X201250D01*
Y237465D01*
X203002Y237696D01*
X205800Y238855D01*
X208202Y240698D01*
X210045Y243100D01*
X211204Y245898D01*
X211435Y247650D01*
D02*
G37*
G36*
X186035D02*
X175850D01*
Y237465D01*
X177602Y237696D01*
X180400Y238855D01*
X182802Y240698D01*
X184645Y243100D01*
X185804Y245898D01*
X186035Y247650D01*
D02*
G37*
G36*
X101250Y242235D02*
Y232050D01*
X111435D01*
X111204Y233802D01*
X110045Y236600D01*
X108202Y239002D01*
X105800Y240845D01*
X103002Y242004D01*
X101250Y242235D01*
D02*
G37*
G36*
X98750D02*
X96998Y242004D01*
X94200Y240845D01*
X91798Y239002D01*
X89955Y236600D01*
X88796Y233802D01*
X88565Y232050D01*
X98750D01*
Y242235D01*
D02*
G37*
G36*
X201250Y234935D02*
Y224750D01*
X211435D01*
X211204Y226502D01*
X210045Y229300D01*
X208202Y231702D01*
X205800Y233545D01*
X203002Y234704D01*
X201250Y234935D01*
D02*
G37*
G36*
X198750D02*
X196998Y234704D01*
X194200Y233545D01*
X191798Y231702D01*
X189955Y229300D01*
X188796Y226502D01*
X188565Y224750D01*
X198750D01*
Y234935D01*
D02*
G37*
G36*
X74600Y257104D02*
X72934Y256772D01*
X71522Y255828D01*
X70578Y254416D01*
X70246Y252750D01*
X70578Y251084D01*
X71522Y249671D01*
X72658Y248912D01*
Y241912D01*
X71658Y241780D01*
X68916Y240644D01*
X66562Y238838D01*
X64756Y236484D01*
X63620Y233742D01*
X63233Y230800D01*
X63620Y227858D01*
X64756Y225116D01*
X66562Y222762D01*
X68916Y220956D01*
X71658Y219820D01*
X74600Y219433D01*
X77542Y219820D01*
X80284Y220956D01*
X82638Y222762D01*
X84444Y225116D01*
X85580Y227858D01*
X85967Y230800D01*
X85580Y233742D01*
X84444Y236484D01*
X82638Y238838D01*
X80284Y240644D01*
X77542Y241780D01*
X76542Y241912D01*
Y248912D01*
X77678Y249671D01*
X78622Y251084D01*
X78954Y252750D01*
X78622Y254416D01*
X77678Y255828D01*
X76266Y256772D01*
X74600Y257104D01*
D02*
G37*
G36*
X98750Y229550D02*
X88565D01*
X88796Y227798D01*
X89955Y225000D01*
X91798Y222598D01*
X94200Y220755D01*
X96998Y219596D01*
X98750Y219365D01*
Y229550D01*
D02*
G37*
G36*
X111435D02*
X101250D01*
Y219365D01*
X103002Y219596D01*
X105800Y220755D01*
X108202Y222598D01*
X110045Y225000D01*
X111204Y227798D01*
X111435Y229550D01*
D02*
G37*
G36*
X174600Y234867D02*
X171658Y234480D01*
X168916Y233344D01*
X166562Y231538D01*
X164756Y229184D01*
X163620Y226442D01*
X163233Y223500D01*
X163620Y220558D01*
X164756Y217816D01*
X166562Y215462D01*
X168916Y213656D01*
X171658Y212520D01*
X174600Y212133D01*
X177542Y212520D01*
X180284Y213656D01*
X182638Y215462D01*
X184444Y217816D01*
X185580Y220558D01*
X185967Y223500D01*
X185580Y226442D01*
X184444Y229184D01*
X182638Y231538D01*
X180284Y233344D01*
X177542Y234480D01*
X174600Y234867D01*
D02*
G37*
G36*
X198750Y222250D02*
X188565D01*
X188796Y220498D01*
X189955Y217700D01*
X191798Y215298D01*
X194200Y213455D01*
X196998Y212296D01*
X198750Y212065D01*
Y222250D01*
D02*
G37*
G36*
X211435D02*
X201250D01*
Y212065D01*
X203002Y212296D01*
X205800Y213455D01*
X208202Y215298D01*
X210045Y217700D01*
X211204Y220498D01*
X211435Y222250D01*
D02*
G37*
G36*
X201250Y209535D02*
Y199350D01*
X211435D01*
X211204Y201102D01*
X210045Y203900D01*
X208202Y206302D01*
X205800Y208145D01*
X203002Y209304D01*
X201250Y209535D01*
D02*
G37*
G36*
X198750D02*
X196998Y209304D01*
X194200Y208145D01*
X191798Y206302D01*
X189955Y203900D01*
X188796Y201102D01*
X188565Y199350D01*
X198750D01*
Y209535D01*
D02*
G37*
G36*
X100000Y216767D02*
X97058Y216380D01*
X94316Y215244D01*
X91962Y213438D01*
X90156Y211084D01*
X89020Y208342D01*
X88633Y205400D01*
X89020Y202458D01*
X90156Y199716D01*
X91962Y197362D01*
X94316Y195556D01*
X97058Y194420D01*
X100000Y194033D01*
X102942Y194420D01*
X105684Y195556D01*
X108038Y197362D01*
X109844Y199716D01*
X110980Y202458D01*
X111367Y205400D01*
X110980Y208342D01*
X109844Y211084D01*
X108038Y213438D01*
X105684Y215244D01*
X102942Y216380D01*
X100000Y216767D01*
D02*
G37*
G36*
X74600D02*
X71658Y216380D01*
X68916Y215244D01*
X66562Y213438D01*
X64756Y211084D01*
X63620Y208342D01*
X63233Y205400D01*
X63620Y202458D01*
X64756Y199716D01*
X66562Y197362D01*
X68916Y195556D01*
X71658Y194420D01*
X74600Y194033D01*
X77542Y194420D01*
X80284Y195556D01*
X82638Y197362D01*
X84444Y199716D01*
X85580Y202458D01*
X85967Y205400D01*
X85580Y208342D01*
X84444Y211084D01*
X82638Y213438D01*
X80284Y215244D01*
X77542Y216380D01*
X74600Y216767D01*
D02*
G37*
G36*
X174600Y209467D02*
X171658Y209080D01*
X168916Y207944D01*
X166562Y206138D01*
X164756Y203784D01*
X163620Y201042D01*
X163233Y198100D01*
X163620Y195158D01*
X164756Y192416D01*
X166562Y190062D01*
X168916Y188256D01*
X171658Y187120D01*
X174600Y186733D01*
X177542Y187120D01*
X180284Y188256D01*
X182638Y190062D01*
X184444Y192416D01*
X185580Y195158D01*
X185967Y198100D01*
X185580Y201042D01*
X184444Y203784D01*
X182638Y206138D01*
X180284Y207944D01*
X177542Y209080D01*
X174600Y209467D01*
D02*
G37*
G36*
X198750Y196850D02*
X188565D01*
X188796Y195098D01*
X189955Y192300D01*
X191798Y189898D01*
X194200Y188055D01*
X196998Y186896D01*
X198750Y186665D01*
Y196850D01*
D02*
G37*
G36*
X211435D02*
X201250D01*
Y186665D01*
X203002Y186896D01*
X205800Y188055D01*
X208202Y189898D01*
X210045Y192300D01*
X211204Y195098D01*
X211435Y196850D01*
D02*
G37*
G36*
X101250Y191435D02*
Y181250D01*
X111435D01*
X111204Y183002D01*
X110045Y185800D01*
X108202Y188202D01*
X105800Y190045D01*
X103002Y191204D01*
X101250Y191435D01*
D02*
G37*
G36*
X98750D02*
X96998Y191204D01*
X94200Y190045D01*
X91798Y188202D01*
X89955Y185800D01*
X88796Y183002D01*
X88565Y181250D01*
X98750D01*
Y191435D01*
D02*
G37*
G36*
X305400Y201367D02*
X302458Y200980D01*
X299716Y199844D01*
X297362Y198038D01*
X295556Y195684D01*
X294420Y192942D01*
X294033Y190000D01*
X294420Y187058D01*
X295556Y184316D01*
X297362Y181962D01*
X299716Y180156D01*
X302458Y179020D01*
X305400Y178633D01*
X308342Y179020D01*
X311084Y180156D01*
X313438Y181962D01*
X315244Y184316D01*
X316380Y187058D01*
X316767Y190000D01*
X316380Y192942D01*
X315244Y195684D01*
X313438Y198038D01*
X311084Y199844D01*
X308342Y200980D01*
X305400Y201367D01*
D02*
G37*
G36*
X280000D02*
X277058Y200980D01*
X274316Y199844D01*
X271962Y198038D01*
X270156Y195684D01*
X269020Y192942D01*
X268633Y190000D01*
X269020Y187058D01*
X270156Y184316D01*
X271962Y181962D01*
X274316Y180156D01*
X277058Y179020D01*
X280000Y178633D01*
X282942Y179020D01*
X285684Y180156D01*
X288038Y181962D01*
X289844Y184316D01*
X290980Y187058D01*
X291367Y190000D01*
X290980Y192942D01*
X289844Y195684D01*
X288038Y198038D01*
X285684Y199844D01*
X282942Y200980D01*
X280000Y201367D01*
D02*
G37*
G36*
X259600Y201393D02*
X249600D01*
X247154Y200906D01*
X245080Y199520D01*
X243694Y197446D01*
X243207Y195000D01*
Y185000D01*
X243694Y182554D01*
X245080Y180480D01*
X247154Y179094D01*
X249600Y178607D01*
X259600D01*
X262046Y179094D01*
X264120Y180480D01*
X265506Y182554D01*
X265993Y185000D01*
Y195000D01*
X265506Y197446D01*
X264120Y199520D01*
X262046Y200906D01*
X259600Y201393D01*
D02*
G37*
G36*
X201250Y184135D02*
Y173950D01*
X211435D01*
X211204Y175702D01*
X210045Y178500D01*
X208202Y180902D01*
X205800Y182745D01*
X203002Y183904D01*
X201250Y184135D01*
D02*
G37*
G36*
X198750D02*
X196998Y183904D01*
X194200Y182745D01*
X191798Y180902D01*
X189955Y178500D01*
X188796Y175702D01*
X188565Y173950D01*
X198750D01*
Y184135D01*
D02*
G37*
G36*
X74600Y191367D02*
X71658Y190980D01*
X68916Y189844D01*
X66562Y188038D01*
X64756Y185684D01*
X63620Y182942D01*
X63233Y180000D01*
X63620Y177058D01*
X64756Y174316D01*
X66562Y171962D01*
X68916Y170156D01*
X71658Y169020D01*
X74600Y168633D01*
X77542Y169020D01*
X80284Y170156D01*
X82638Y171962D01*
X84444Y174316D01*
X85580Y177058D01*
X85967Y180000D01*
X85580Y182942D01*
X84444Y185684D01*
X82638Y188038D01*
X80284Y189844D01*
X77542Y190980D01*
X74600Y191367D01*
D02*
G37*
G36*
X98750Y178750D02*
X88565D01*
X88796Y176998D01*
X89955Y174200D01*
X91798Y171798D01*
X94200Y169955D01*
X96998Y168796D01*
X98750Y168565D01*
Y178750D01*
D02*
G37*
G36*
X111435D02*
X101250D01*
Y168565D01*
X103002Y168796D01*
X105800Y169955D01*
X108202Y171798D01*
X110045Y174200D01*
X111204Y176998D01*
X111435Y178750D01*
D02*
G37*
G36*
X174600Y184067D02*
X171658Y183680D01*
X168916Y182544D01*
X166562Y180738D01*
X164756Y178384D01*
X163620Y175642D01*
X163233Y172700D01*
X163620Y169758D01*
X164756Y167016D01*
X166562Y164662D01*
X168916Y162856D01*
X171658Y161720D01*
X174600Y161333D01*
X177542Y161720D01*
X180284Y162856D01*
X182638Y164662D01*
X184444Y167016D01*
X185580Y169758D01*
X185967Y172700D01*
X185580Y175642D01*
X184444Y178384D01*
X182638Y180738D01*
X180284Y182544D01*
X177542Y183680D01*
X174600Y184067D01*
D02*
G37*
G36*
X198750Y171450D02*
X188565D01*
X188796Y169698D01*
X189955Y166900D01*
X191798Y164498D01*
X194200Y162655D01*
X196998Y161496D01*
X198750Y161265D01*
Y171450D01*
D02*
G37*
G36*
X211435D02*
X201250D01*
Y161265D01*
X203002Y161496D01*
X205800Y162655D01*
X208202Y164498D01*
X210045Y166900D01*
X211204Y169698D01*
X211435Y171450D01*
D02*
G37*
G36*
X101250Y166035D02*
Y155850D01*
X111435D01*
X111204Y157602D01*
X110045Y160400D01*
X108202Y162802D01*
X105800Y164645D01*
X103002Y165804D01*
X101250Y166035D01*
D02*
G37*
G36*
X98750D02*
X96998Y165804D01*
X94200Y164645D01*
X91798Y162802D01*
X89955Y160400D01*
X88796Y157602D01*
X88565Y155850D01*
X98750D01*
Y166035D01*
D02*
G37*
G36*
X201250Y158735D02*
Y148550D01*
X211435D01*
X211204Y150302D01*
X210045Y153100D01*
X208202Y155502D01*
X205800Y157345D01*
X203002Y158504D01*
X201250Y158735D01*
D02*
G37*
G36*
X198750D02*
X196998Y158504D01*
X194200Y157345D01*
X191798Y155502D01*
X189955Y153100D01*
X188796Y150302D01*
X188565Y148550D01*
X198750D01*
Y158735D01*
D02*
G37*
G36*
X74600Y165967D02*
X71658Y165580D01*
X68916Y164444D01*
X66562Y162638D01*
X64756Y160284D01*
X63620Y157542D01*
X63233Y154600D01*
X63620Y151658D01*
X64756Y148916D01*
X66562Y146562D01*
X68916Y144756D01*
X71658Y143620D01*
X74600Y143233D01*
X77542Y143620D01*
X80284Y144756D01*
X82638Y146562D01*
X84444Y148916D01*
X85580Y151658D01*
X85967Y154600D01*
X85580Y157542D01*
X84444Y160284D01*
X82638Y162638D01*
X80284Y164444D01*
X77542Y165580D01*
X74600Y165967D01*
D02*
G37*
G36*
X98750Y153350D02*
X88565D01*
X88796Y151598D01*
X89955Y148800D01*
X91798Y146398D01*
X94200Y144555D01*
X96998Y143396D01*
X98750Y143165D01*
Y153350D01*
D02*
G37*
G36*
X111435D02*
X101250D01*
Y143165D01*
X103002Y143396D01*
X105800Y144555D01*
X108202Y146398D01*
X110045Y148800D01*
X111204Y151598D01*
X111435Y153350D01*
D02*
G37*
G36*
X174600Y158667D02*
X171658Y158280D01*
X168916Y157144D01*
X166562Y155338D01*
X164756Y152984D01*
X163620Y150242D01*
X163233Y147300D01*
X163620Y144358D01*
X164756Y141616D01*
X166562Y139262D01*
X168916Y137456D01*
X171658Y136320D01*
X174600Y135933D01*
X177542Y136320D01*
X180284Y137456D01*
X182638Y139262D01*
X184444Y141616D01*
X185580Y144358D01*
X185967Y147300D01*
X185580Y150242D01*
X184444Y152984D01*
X182638Y155338D01*
X180284Y157144D01*
X177542Y158280D01*
X174600Y158667D01*
D02*
G37*
G36*
X198750Y146050D02*
X188565D01*
X188796Y144298D01*
X189955Y141500D01*
X191798Y139098D01*
X194200Y137255D01*
X196998Y136096D01*
X198750Y135865D01*
Y146050D01*
D02*
G37*
G36*
X211435D02*
X201250D01*
Y135865D01*
X203002Y136096D01*
X205800Y137255D01*
X208202Y139098D01*
X210045Y141500D01*
X211204Y144298D01*
X211435Y146050D01*
D02*
G37*
G36*
X201250Y133335D02*
Y123150D01*
X211435D01*
X211204Y124902D01*
X210045Y127700D01*
X208202Y130102D01*
X205800Y131945D01*
X203002Y133104D01*
X201250Y133335D01*
D02*
G37*
G36*
X175850D02*
Y123150D01*
X186035D01*
X185804Y124902D01*
X184645Y127700D01*
X182802Y130102D01*
X180400Y131945D01*
X177602Y133104D01*
X175850Y133335D01*
D02*
G37*
G36*
X198750D02*
X196998Y133104D01*
X194200Y131945D01*
X191798Y130102D01*
X189955Y127700D01*
X188796Y124902D01*
X188565Y123150D01*
X198750D01*
Y133335D01*
D02*
G37*
G36*
X173350D02*
X171598Y133104D01*
X168800Y131945D01*
X166398Y130102D01*
X164555Y127700D01*
X163396Y124902D01*
X163165Y123150D01*
X173350D01*
Y133335D01*
D02*
G37*
G36*
X74600Y140567D02*
X71658Y140180D01*
X68916Y139044D01*
X66562Y137238D01*
X64756Y134884D01*
X63620Y132142D01*
X63233Y129200D01*
X63620Y126258D01*
X64756Y123516D01*
X66562Y121162D01*
X68916Y119356D01*
X71658Y118220D01*
X74600Y117833D01*
X77542Y118220D01*
X80284Y119356D01*
X82638Y121162D01*
X84444Y123516D01*
X85580Y126258D01*
X85967Y129200D01*
X85580Y132142D01*
X84444Y134884D01*
X82638Y137238D01*
X80284Y139044D01*
X77542Y140180D01*
X74600Y140567D01*
D02*
G37*
G36*
X105000Y140593D02*
X95000D01*
X92554Y140106D01*
X90480Y138720D01*
X89094Y136646D01*
X88607Y134200D01*
Y124200D01*
X89094Y121754D01*
X90480Y119680D01*
X92554Y118294D01*
X95000Y117807D01*
X105000D01*
X107446Y118294D01*
X109520Y119680D01*
X110906Y121754D01*
X111393Y124200D01*
Y134200D01*
X110906Y136646D01*
X109520Y138720D01*
X107446Y140106D01*
X105000Y140593D01*
D02*
G37*
G36*
X198750Y120650D02*
X188565D01*
X188796Y118898D01*
X189955Y116100D01*
X191798Y113698D01*
X194200Y111855D01*
X196998Y110696D01*
X198750Y110465D01*
Y120650D01*
D02*
G37*
G36*
X173350D02*
X163165D01*
X163396Y118898D01*
X164555Y116100D01*
X166398Y113698D01*
X168800Y111855D01*
X171598Y110696D01*
X173350Y110465D01*
Y120650D01*
D02*
G37*
G36*
X211435D02*
X201250D01*
Y110465D01*
X203002Y110696D01*
X205800Y111855D01*
X208202Y113698D01*
X210045Y116100D01*
X211204Y118898D01*
X211435Y120650D01*
D02*
G37*
G36*
X186035D02*
X175850D01*
Y110465D01*
X177602Y110696D01*
X180400Y111855D01*
X182802Y113698D01*
X184645Y116100D01*
X185804Y118898D01*
X186035Y120650D01*
D02*
G37*
G36*
X201250Y107935D02*
Y97750D01*
X211435D01*
X211204Y99502D01*
X210045Y102300D01*
X208202Y104702D01*
X205800Y106545D01*
X203002Y107704D01*
X201250Y107935D01*
D02*
G37*
G36*
X198750D02*
X196998Y107704D01*
X194200Y106545D01*
X191798Y104702D01*
X189955Y102300D01*
X188796Y99502D01*
X188565Y97750D01*
X198750D01*
Y107935D01*
D02*
G37*
G36*
X174600Y107867D02*
X171658Y107480D01*
X168916Y106344D01*
X166562Y104538D01*
X164756Y102184D01*
X163620Y99442D01*
X163233Y96500D01*
X163620Y93558D01*
X164756Y90816D01*
X166562Y88462D01*
X168916Y86656D01*
X171658Y85520D01*
X174600Y85133D01*
X177542Y85520D01*
X180284Y86656D01*
X182638Y88462D01*
X184444Y90816D01*
X185580Y93558D01*
X185967Y96500D01*
X185580Y99442D01*
X184444Y102184D01*
X182638Y104538D01*
X180284Y106344D01*
X177542Y107480D01*
X174600Y107867D01*
D02*
G37*
G36*
X198750Y95250D02*
X188565D01*
X188796Y93498D01*
X189955Y90700D01*
X191798Y88298D01*
X194200Y86455D01*
X196998Y85296D01*
X198750Y85065D01*
Y95250D01*
D02*
G37*
G36*
X211435D02*
X201250D01*
Y85065D01*
X203002Y85296D01*
X205800Y86455D01*
X208202Y88298D01*
X210045Y90700D01*
X211204Y93498D01*
X211435Y95250D01*
D02*
G37*
G36*
X201250Y82535D02*
Y72350D01*
X211435D01*
X211204Y74102D01*
X210045Y76900D01*
X208202Y79302D01*
X205800Y81145D01*
X203002Y82304D01*
X201250Y82535D01*
D02*
G37*
G36*
X198750D02*
X196998Y82304D01*
X194200Y81145D01*
X191798Y79302D01*
X189955Y76900D01*
X188796Y74102D01*
X188565Y72350D01*
X198750D01*
Y82535D01*
D02*
G37*
G36*
X174600Y82467D02*
X171658Y82080D01*
X168916Y80944D01*
X166562Y79138D01*
X164756Y76784D01*
X163620Y74042D01*
X163233Y71100D01*
X163620Y68158D01*
X164756Y65416D01*
X166562Y63062D01*
X168916Y61256D01*
X171658Y60120D01*
X174600Y59733D01*
X177542Y60120D01*
X180284Y61256D01*
X182638Y63062D01*
X184444Y65416D01*
X185580Y68158D01*
X185967Y71100D01*
X185580Y74042D01*
X184444Y76784D01*
X182638Y79138D01*
X180284Y80944D01*
X177542Y82080D01*
X174600Y82467D01*
D02*
G37*
G36*
X198750Y69850D02*
X188565D01*
X188796Y68098D01*
X189955Y65300D01*
X191798Y62898D01*
X194200Y61055D01*
X196998Y59896D01*
X198750Y59665D01*
Y69850D01*
D02*
G37*
G36*
X211435D02*
X201250D01*
Y59665D01*
X203002Y59896D01*
X205800Y61055D01*
X208202Y62898D01*
X210045Y65300D01*
X211204Y68098D01*
X211435Y69850D01*
D02*
G37*
G36*
X65850Y57135D02*
Y46950D01*
X76035D01*
X75804Y48702D01*
X74645Y51500D01*
X72802Y53902D01*
X70400Y55745D01*
X67602Y56904D01*
X65850Y57135D01*
D02*
G37*
G36*
X63350D02*
X61598Y56904D01*
X58800Y55745D01*
X56398Y53902D01*
X54555Y51500D01*
X53396Y48702D01*
X53165Y46950D01*
X63350D01*
Y57135D01*
D02*
G37*
G36*
X201250D02*
Y46950D01*
X211435D01*
X211204Y48702D01*
X210045Y51500D01*
X208202Y53902D01*
X205800Y55745D01*
X203002Y56904D01*
X201250Y57135D01*
D02*
G37*
G36*
X175850D02*
Y46950D01*
X186035D01*
X185804Y48702D01*
X184645Y51500D01*
X182802Y53902D01*
X180400Y55745D01*
X177602Y56904D01*
X175850Y57135D01*
D02*
G37*
G36*
X198750D02*
X196998Y56904D01*
X194200Y55745D01*
X191798Y53902D01*
X189955Y51500D01*
X188796Y48702D01*
X188565Y46950D01*
X198750D01*
Y57135D01*
D02*
G37*
G36*
X173350D02*
X171598Y56904D01*
X168800Y55745D01*
X166398Y53902D01*
X164555Y51500D01*
X163396Y48702D01*
X163165Y46950D01*
X173350D01*
Y57135D01*
D02*
G37*
G36*
X90000Y57067D02*
X87058Y56680D01*
X84316Y55544D01*
X81962Y53738D01*
X80156Y51384D01*
X79020Y48642D01*
X78633Y45700D01*
X79020Y42758D01*
X80156Y40016D01*
X81962Y37662D01*
X84316Y35856D01*
X87058Y34720D01*
X90000Y34333D01*
X92942Y34720D01*
X95684Y35856D01*
X98038Y37662D01*
X99844Y40016D01*
X100980Y42758D01*
X101367Y45700D01*
X100980Y48642D01*
X99844Y51384D01*
X98038Y53738D01*
X95684Y55544D01*
X92942Y56680D01*
X90000Y57067D01*
D02*
G37*
G36*
X120400Y57093D02*
X110400D01*
X107954Y56606D01*
X105880Y55220D01*
X104494Y53147D01*
X104007Y50700D01*
Y40700D01*
X104494Y38254D01*
X105880Y36180D01*
X107954Y34794D01*
X110400Y34307D01*
X120400D01*
X122846Y34794D01*
X124920Y36180D01*
X126306Y38254D01*
X126793Y40700D01*
Y50700D01*
X126306Y53147D01*
X124920Y55220D01*
X122846Y56606D01*
X120400Y57093D01*
D02*
G37*
G36*
X173350Y44450D02*
X163165D01*
X163396Y42698D01*
X164555Y39900D01*
X166398Y37498D01*
X168800Y35655D01*
X171598Y34496D01*
X173350Y34265D01*
Y44450D01*
D02*
G37*
G36*
X198750D02*
X188565D01*
X188796Y42698D01*
X189955Y39900D01*
X191798Y37498D01*
X194200Y35655D01*
X196998Y34496D01*
X198750Y34265D01*
Y44450D01*
D02*
G37*
G36*
X76035Y44450D02*
X65850D01*
Y34265D01*
X67602Y34496D01*
X70400Y35655D01*
X72802Y37498D01*
X74645Y39900D01*
X75804Y42698D01*
X76035Y44450D01*
D02*
G37*
G36*
X63350D02*
X53165D01*
X53396Y42698D01*
X54555Y39900D01*
X56398Y37498D01*
X58800Y35655D01*
X61598Y34496D01*
X63350Y34265D01*
Y44450D01*
D02*
G37*
G36*
X211435Y44450D02*
X201250D01*
Y34265D01*
X203002Y34496D01*
X205800Y35655D01*
X208202Y37498D01*
X210045Y39900D01*
X211204Y42698D01*
X211435Y44450D01*
D02*
G37*
G36*
X186035D02*
X175850D01*
Y34265D01*
X177602Y34496D01*
X180400Y35655D01*
X182802Y37498D01*
X184645Y39900D01*
X185804Y42698D01*
X186035Y44450D01*
D02*
G37*
%LPD*%
D17*
X74600Y230800D02*
Y252750D01*
D19*
X115400Y45700D02*
D03*
X254600Y190000D02*
D03*
D20*
X90000Y45700D02*
D03*
X64600D02*
D03*
X280000Y190000D02*
D03*
X305400D02*
D03*
X200000Y274300D02*
D03*
X174600Y248900D02*
D03*
X200000D02*
D03*
X174600Y223500D02*
D03*
X200000D02*
D03*
X174600Y198100D02*
D03*
X200000D02*
D03*
X174600Y172700D02*
D03*
X200000D02*
D03*
X174600Y147300D02*
D03*
X200000D02*
D03*
X174600Y121900D02*
D03*
X200000D02*
D03*
X174600Y96500D02*
D03*
X200000D02*
D03*
X174600Y71100D02*
D03*
X200000D02*
D03*
X174600Y45700D02*
D03*
X200000D02*
D03*
X100000Y180000D02*
D03*
X74600Y154600D02*
D03*
X100000D02*
D03*
X74600Y129200D02*
D03*
Y180000D02*
D03*
X100000Y205400D02*
D03*
X74600D02*
D03*
X100000Y230800D02*
D03*
X74600D02*
D03*
D21*
X174600Y274300D02*
D03*
X100000Y129200D02*
D03*
D22*
X319750Y282750D02*
D03*
X240250D02*
D03*
X74600Y252750D02*
D03*
X299500Y139000D02*
D03*
M02*
